{"accessors": {"accessors_0": {"bufferView": "bufferViews_0", "byteOffset": 12, "byteStride": 32, "componentType": 5126, "count": 4, "max": [0, 0, 1.0], "min": [0.0, 0.0, 1.0], "type": "VEC3"}, "accessors_1": {"bufferView": "bufferViews_0", "byteOffset": 0, "byteStride": 32, "componentType": 5126, "count": 4, "max": [1.0, 1.0, 0], "min": [-1.0, -1.0, 0.0], "type": "VEC3"}, "accessors_2": {"bufferView": "bufferViews_1", "byteOffset": 0, "byteStride": 2, "componentType": 5123, "count": 6, "max": [3], "min": [0], "type": "SCALAR"}, "accessors_3": {"bufferView": "bufferViews_0", "byteOffset": 24, "byteStride": 32, "componentType": 5126, "count": 4, "max": [0.9999000430107117, 0.9999000199895818], "min": [9.998001041822135e-05, 9.995698928833008e-05], "type": "VEC2"}}, "asset": {"profile": {"api": "WebGL", "version": "1.0.3"}, "version": "1.0"}, "bufferViews": {"bufferViews_0": {"buffer": "buffers_0", "byteLength": 128, "byteOffset": 0, "target": 34962}, "bufferViews_1": {"buffer": "buffers_0", "byteLength": 12, "byteOffset": 128, "target": 34963}}, "buffers": {"buffers_0": {"byteLength": 140, "type": "arraybuffer", "uri": "backplane.bin"}}, "extensions": {"KHR_materials_common": {"lights": {}}}, "extensionsUsed": ["KHR_materials_common"], "glExtensionsUsed": [], "meshes": {"meshes_0": {"name": "Plane", "primitives": [{"attributes": {"NORMAL": "accessors_0", "POSITION": "accessors_1", "TEXCOORD_0": "accessors_3"}, "indices": "accessors_2", "mode": 4}]}}, "nodes": {"nodes_0": {"children": [], "meshes": ["meshes_0"], "name": "Plane", "rotation": [0.0, 0.0, 0.0, 1.0], "scale": [1.0, 1.0, 1.0], "translation": [0.0, 0.0, 0.0]}}, "samplers": {"samplers_0": {}}, "scene": "scenes_0", "scenes": {"scenes_0": {"extras": {"active_camera": null, "background_color": [0.05087608844041824, 0.05087608844041824, 0.05087608844041824], "frames_per_second": 24}, "name": "Scene", "nodes": ["nodes_0"]}}}