{"accessors": {"accessors_0": {"bufferView": "bufferViews_0", "byteOffset": 0, "byteStride": 32, "componentType": 5126, "count": 28, "max": [1.0000001192092896, 0.41202104091644287, 10.0], "min": [-1.0000009536743164, -1.5879794359207153, -10.0], "type": "VEC3"}, "accessors_1": {"bufferView": "bufferViews_0", "byteOffset": 12, "byteStride": 32, "componentType": 5126, "count": 28, "max": [1.0, 0.9802210927009583, 1.3059285208782967e-08], "min": [-1.0, -1.0, -1.1415410838822027e-08], "type": "VEC3"}, "accessors_2": {"bufferView": "bufferViews_1", "byteOffset": 0, "byteStride": 2, "componentType": 5123, "count": 42, "max": [27], "min": [0], "type": "SCALAR"}, "accessors_3": {"bufferView": "bufferViews_0", "byteOffset": 24, "byteStride": 32, "componentType": 5126, "count": 28, "max": [1.0, 1.0], "min": [0.0, 0.0], "type": "VEC2"}}, "asset": {"profile": {"api": "WebGL", "version": "1.0.3"}, "version": "1.0"}, "bufferViews": {"bufferViews_0": {"buffer": "buffers_0", "byteLength": 896, "byteOffset": 0, "target": 34962}, "bufferViews_1": {"buffer": "buffers_0", "byteLength": 84, "byteOffset": 896, "target": 34963}}, "buffers": {"buffers_0": {"byteLength": 980, "type": "arraybuffer", "uri": "border.bin"}}, "extensions": {"KHR_materials_common": {"lights": {}}}, "extensionsUsed": ["KHR_materials_common"], "glExtensionsUsed": [], "materials": {"materials_0": {"extensions": {"KHR_materials_common": {"technique": "PHONG", "values": {"ambient": [1.0, 1.0, 1.0, 1.0], "diffuse": [0.64000004529953, 0.64000004529953, 0.64000004529953, 1.0], "doubleSided": false, "emission": [0.0, 0.0, 0.0, 1.0], "shininess": 50, "specular": [0.5, 0.5, 0.5, 1.0], "transparency": 1.0, "transparent": false}}}, "name": "Material"}}, "meshes": {"meshes_0": {"name": "Cube", "primitives": [{"attributes": {"NORMAL": "accessors_1", "POSITION": "accessors_0", "TEXCOORD_0": "accessors_3"}, "indices": "accessors_2", "material": "materials_0", "mode": 4}]}}, "nodes": {"nodes_0": {"children": [], "meshes": ["meshes_0"], "name": "Cube", "rotation": [0.0, 0.0, 0.0, 1.0], "scale": [1.0, 1.0, 1.0], "translation": [0.0, 0.0, 0.0]}}, "samplers": {"samplers_0": {}}, "scene": "scenes_0", "scenes": {"scenes_0": {"extras": {"active_camera": null, "background_color": [0.05087608844041824, 0.05087608844041824, 0.05087608844041824], "frames_per_second": 24}, "name": "Scene", "nodes": ["nodes_0"]}}}