{"accessors": {"accessors_0": {"bufferView": "bufferViews_0", "byteOffset": 24, "byteStride": 32, "componentType": 5126, "count": 22, "max": [0.9999220371246338, 0.9899564506486058], "min": [7.777800783514977e-05, 0.010335266590118408], "type": "VEC2"}, "accessors_1": {"bufferView": "bufferViews_1", "byteOffset": 0, "byteStride": 2, "componentType": 5123, "count": 30, "max": [21], "min": [0], "type": "SCALAR"}, "accessors_2": {"bufferView": "bufferViews_0", "byteOffset": 12, "byteStride": 32, "componentType": 5126, "count": 22, "max": [0.7071071267127991, 0.9615712761878967, 0.707106351852417], "min": [-0.4282988905906677, -1.0, -0.428297221660614], "type": "VEC3"}, "accessors_3": {"bufferView": "bufferViews_0", "byteOffset": 0, "byteStride": 32, "componentType": 5126, "count": 22, "max": [1.0000001192092896, 0.41202104091644287, 1.0000028610229492], "min": [-1.0000009536743164, -1.5879793167114258, -1.0], "type": "VEC3"}}, "asset": {"profile": {"api": "WebGL", "version": "1.0.3"}, "version": "1.0"}, "bufferViews": {"bufferViews_0": {"buffer": "buffers_0", "byteLength": 704, "byteOffset": 0, "target": 34962}, "bufferViews_1": {"buffer": "buffers_0", "byteLength": 60, "byteOffset": 704, "target": 34963}}, "buffers": {"buffers_0": {"byteLength": 764, "type": "arraybuffer", "uri": "borderedge.bin"}}, "extensions": {"KHR_materials_common": {"lights": {}}}, "extensionsUsed": ["KHR_materials_common"], "glExtensionsUsed": [], "materials": {"materials_0": {"extensions": {"KHR_materials_common": {"technique": "PHONG", "values": {"ambient": [1.0, 1.0, 1.0, 1.0], "diffuse": [0.64000004529953, 0.64000004529953, 0.64000004529953, 1.0], "doubleSided": false, "emission": [0.0, 0.0, 0.0, 1.0], "shininess": 50, "specular": [0.5, 0.5, 0.5, 1.0], "transparency": 1.0, "transparent": false}}}, "name": "Material"}}, "meshes": {"meshes_0": {"name": "Cube", "primitives": [{"attributes": {"NORMAL": "accessors_2", "POSITION": "accessors_3", "TEXCOORD_0": "accessors_0"}, "indices": "accessors_1", "material": "materials_0", "mode": 4}]}}, "nodes": {"nodes_0": {"children": [], "meshes": ["meshes_0"], "name": "Cube", "rotation": [0.0, 0.0, 0.0, 1.0], "scale": [1.0, 1.0, 1.0], "translation": [0.0, 0.0, 0.0]}}, "samplers": {"samplers_0": {}}, "scene": "scenes_0", "scenes": {"scenes_0": {"extras": {"active_camera": null, "background_color": [0.05087608844041824, 0.05087608844041824, 0.05087608844041824], "frames_per_second": 24}, "name": "Scene", "nodes": ["nodes_0"]}}}